# xmcd
#
# Track frame offsets: 
#        150
#        13913
#        25990
#        41291
#        57063
#        69471
#        94112
#        107231
#        120449
#        135080
#
# Disc length: 1994 seconds
#
# Revision: 0
# Processed by: cddbd v1.5.2PL0 Copyright (c) Steve Scherf et al.
# Submitted via: ExactAudioCopy v0.95b3
#
DISCID=7707c80a
DTITLE=Mitch Ryder and The Detroit Wheels  - Sock it to Me (Sundazed mon
DTITLE=o LP)  FLAC
DYEAR=1900
DGENRE=
TTITLE0=Sock It to Me, Baby!
TTITLE1=I Can't Hide It
TTITLE2=Takin' All I Can Get
TTITLE3=Slow Fizz
TTITLE4=Walk on By
TTITLE5=I Never Had It Better
TTITLE6=Shakedown
TTITLE7=A Face in the Crowd
TTITLE8=I'd Rather Go to Jail
TTITLE9=Wild Child
EXTD=
EXTT0=
EXTT1=
EXTT2=
EXTT3=
EXTT4=
EXTT5=
EXTT6=
EXTT7=
EXTT8=
EXTT9=
PLAYORDER=
